<?xml version="1.0" encoding="UTF-8" standalone="no"?>
<!DOCTYPE svg PUBLIC "-//W3C//DTD SVG 1.1//EN" "http://www.w3.org/Graphics/SVG/1.1/DTD/svg11.dtd">
<svg xmlns="http://www.w3.org/2000/svg" version="1.1" viewBox="0.00 0.00 885.00 105.00">
<path fill="#000000" d="
  M 676.71 20.65
  A 2.63 2.63 0.0 0 1 674.08 18.03
  L 674.06 9.10
  A 4.09 2.74 -0.1 0 1 678.15 6.35
  L 687.55 6.33
  A 4.09 2.74 -0.1 0 1 691.64 9.06
  L 691.66 17.99
  A 2.63 2.63 0.0 0 1 689.03 20.63
  L 676.71 20.65
  Z"
/>
<rect fill="#000000" x="169.25" y="6.50" width="17.00" height="71.50" rx="0.69"/>
<path fill="#000000" d="
  M 20.94 17.94
  C 28.91 8.69 46.96 9.27 58.48 10.79
  Q 75.59 13.05 78.68 29.50
  Q 81.48 44.38 78.79 59.25
  C 75.22 79.00 55.33 80.33 39.41 78.59
  C 26.25 77.15 17.97 72.38 15.58 58.97
  C 13.40 46.76 12.64 27.56 20.94 17.94
  Z
  M 31.94 34.94
  C 30.94 41.75 29.54 59.26 37.29 62.53
  C 42.07 64.55 51.47 64.64 56.10 63.00
  C 64.62 59.99 63.70 43.28 62.55 35.79
  C 60.97 25.45 53.18 23.84 44.05 24.83
  C 37.25 25.57 32.97 27.91 31.94 34.94
  Z"
/>
<path fill="#000000" d="
  M 248.93 61.38
  A 0.88 0.88 0.0 0 0 248.00 62.26
  L 248.00 77.50
  A 0.50 0.50 0.0 0 1 247.50 78.00
  L 231.75 78.00
  Q 231.00 78.00 231.00 77.25
  L 231.00 11.50
  A 0.72 0.72 0.0 0 1 231.72 10.78
  C 245.06 10.71 260.84 9.36 273.91 12.39
  C 289.10 15.91 289.52 32.89 287.39 45.17
  C 284.19 63.54 262.56 62.06 248.93 61.38
  Z
  M 248.05 25.30
  L 247.93 47.10
  A 0.63 0.63 0.0 0 0 248.56 47.73
  L 260.31 47.80
  A 10.34 9.51 0.3 0 0 270.70 38.34
  L 270.72 34.30
  A 10.34 9.51 0.3 0 0 260.43 24.74
  L 248.68 24.67
  A 0.63 0.63 0.0 0 0 248.05 25.30
  Z"
/>
<path fill="#000000" d="
  M 498.00 25.90
  L 498.00 77.35
  A 0.65 0.65 0.0 0 1 497.35 78.00
  L 481.65 78.00
  A 0.65 0.65 0.0 0 1 481.00 77.35
  L 481.00 25.90
  A 0.65 0.65 0.0 0 0 480.35 25.25
  L 462.65 25.25
  A 0.65 0.65 0.0 0 1 462.00 24.60
  L 462.00 11.40
  A 0.65 0.65 0.0 0 1 462.65 10.75
  L 516.63 10.75
  A 0.65 0.65 0.0 0 1 517.28 11.40
  L 517.17 24.60
  A 0.65 0.65 0.0 0 1 516.52 25.25
  L 498.65 25.25
  A 0.65 0.65 0.0 0 0 498.00 25.90
  Z"
/>
<path fill="#000000" d="
  M 656.01 63.79
  Q 660.57 64.38 665.06 63.46
  A 0.57 0.57 0.0 0 1 665.75 64.02
  L 665.75 76.78
  Q 665.75 77.45 665.10 77.61
  C 656.95 79.62 642.23 81.09 638.31 71.79
  Q 637.16 69.06 637.06 61.17
  Q 636.93 50.99 637.03 40.79
  A 0.54 0.54 0.0 0 0 636.49 40.25
  L 631.25 40.25
  Q 630.50 40.25 630.50 39.50
  L 630.50 27.00
  A 0.50 0.50 0.0 0 1 631.00 26.50
  L 637.96 26.50
  A 0.59 0.58 6.9 0 0 638.53 26.06
  L 641.57 14.27
  Q 641.71 13.75 642.25 13.75
  L 653.00 13.75
  Q 653.75 13.75 653.75 14.50
  L 653.75 26.05
  Q 653.75 26.54 654.24 26.54
  L 664.99 26.48
  Q 665.50 26.48 665.50 26.99
  L 665.50 39.75
  A 0.50 0.50 0.0 0 1 665.00 40.25
  L 654.35 40.25
  Q 653.69 40.25 653.70 40.90
  L 653.87 61.38
  A 2.45 2.44 3.5 0 0 656.01 63.79
  Z"
/>
<path fill="#000000" d="
  M 777.76 60.77
  C 777.59 65.23 780.96 65.66 784.50 65.53
  C 791.29 65.28 800.66 64.88 808.45 66.78
  C 813.58 68.04 816.21 71.51 817.08 76.74
  C 819.41 90.69 809.88 96.11 797.51 97.69
  C 788.89 98.79 776.84 99.03 768.87 94.87
  C 760.64 90.56 759.74 78.19 769.40 75.11
  A 0.53 0.52 46.8 0 0 769.43 74.12
  C 761.38 70.97 761.27 60.83 768.70 56.68
  Q 769.23 56.38 768.84 55.92
  C 761.07 46.93 762.59 31.13 775.51 27.64
  Q 790.96 23.46 805.88 28.82
  Q 806.41 29.01 806.72 28.55
  Q 811.61 21.42 820.50 22.90
  Q 821.00 22.99 821.00 23.50
  L 821.00 34.91
  A 0.66 0.65 -0.0 0 1 820.34 35.56
  L 813.38 35.56
  Q 811.90 35.56 812.31 36.99
  C 815.27 47.17 811.35 57.63 799.94 59.55
  Q 789.52 61.30 779.08 59.68
  A 1.15 1.15 0.0 0 0 777.76 60.77
  Z
  M 796.32 47.40
  C 805.36 34.68 774.64 33.43 780.26 45.84
  C 782.31 50.38 791.88 49.18 795.54 47.97
  A 1.57 1.50 7.6 0 0 796.32 47.40
  Z
  M 782.10 77.03
  C 776.92 77.10 776.05 83.63 780.67 84.86
  Q 789.21 87.15 799.30 84.80
  C 803.72 83.77 803.25 77.38 798.68 77.22
  Q 790.39 76.94 782.10 77.03
  Z"
/>
<path fill="#000000" d="
  M 309.67 58.52
  Q 311.07 63.99 317.07 64.69
  Q 329.60 66.13 342.28 64.23
  A 0.62 0.62 0.0 0 1 342.99 64.84
  L 343.00 75.49
  A 1.21 1.21 0.0 0 1 342.09 76.66
  Q 332.57 79.08 323.02 78.97
  C 304.16 78.74 292.66 72.41 293.65 51.50
  C 294.17 40.46 296.97 30.85 308.55 27.34
  Q 317.26 24.70 328.02 26.29
  C 344.05 28.66 347.29 43.56 344.82 57.07
  A 0.84 0.83 -84.6 0 1 344.00 57.75
  L 310.27 57.75
  A 0.62 0.62 0.0 0 0 309.67 58.52
  Z
  M 309.67 46.50
  L 330.35 46.50
  A 0.45 0.45 0.0 0 0 330.80 46.05
  L 330.80 45.91
  A 8.06 7.61 -0.0 0 0 322.74 38.30
  L 317.28 38.30
  A 8.06 7.61 0.0 0 0 309.22 45.91
  L 309.22 46.05
  A 0.45 0.45 0.0 0 0 309.67 46.50
  Z"
/>
<path fill="#000000" d="
  M 371.46 35.03
  A 0.41 0.40 -36.8 0 0 372.24 35.14
  Q 375.14 27.91 382.59 26.40
  C 397.95 23.29 405.60 31.85 405.72 46.62
  Q 405.84 62.06 405.71 77.50
  Q 405.71 78.00 405.21 78.00
  L 389.30 78.00
  Q 388.81 78.00 388.80 77.51
  Q 388.66 64.45 388.72 51.51
  C 388.75 44.70 386.08 40.35 378.56 41.38
  C 373.52 42.07 371.63 45.68 371.59 50.45
  Q 371.48 63.94 371.49 77.47
  Q 371.49 78.00 370.96 78.00
  L 355.25 78.00
  Q 354.50 78.00 354.50 77.25
  L 354.50 26.75
  A 0.50 0.50 0.0 0 1 355.00 26.25
  L 370.11 26.25
  Q 370.73 26.25 370.78 26.86
  L 371.46 35.03
  Z"
/>
<path fill="#000000" d="
  M 536.94 58.41
  Q 537.99 63.83 543.96 64.57
  Q 556.73 66.17 569.40 64.24
  A 0.53 0.52 85.8 0 1 570.00 64.76
  L 570.00 75.51
  A 1.18 1.18 0.0 0 1 569.12 76.65
  Q 555.36 80.21 541.79 78.38
  C 530.07 76.79 523.62 71.97 521.55 60.34
  Q 519.77 50.29 522.42 40.69
  C 526.85 24.71 547.63 23.69 560.25 27.74
  C 572.39 31.65 574.02 46.07 572.02 56.91
  A 1.03 1.03 0.0 0 1 571.01 57.75
  L 537.49 57.75
  Q 536.81 57.75 536.94 58.41
  Z
  M 536.77 46.47
  L 557.73 46.55
  A 0.28 0.28 0.0 0 0 558.01 46.27
  L 558.01 45.86
  A 8.01 7.51 0.2 0 0 550.02 38.32
  L 544.52 38.30
  A 8.01 7.51 0.2 0 0 536.49 45.78
  L 536.49 46.19
  A 0.28 0.28 0.0 0 0 536.77 46.47
  Z"
/>
<path fill="#000000" d="
  M 624.64 29.36
  L 624.44 41.04
  A 0.69 0.69 0.0 0 1 623.56 41.69
  C 620.59 40.83 592.78 34.80 596.82 43.99
  A 1.07 1.07 0.0 0 0 597.51 44.60
  C 605.53 46.90 614.72 47.18 621.96 51.30
  Q 626.01 53.62 626.51 59.74
  C 627.25 68.67 625.02 76.52 615.01 78.04
  Q 598.02 80.63 579.79 76.65
  Q 579.25 76.53 579.25 75.98
  L 579.25 64.02
  A 0.57 0.57 0.0 0 1 579.96 63.47
  Q 593.45 66.85 607.26 65.08
  C 609.75 64.76 610.17 60.37 606.43 59.70
  C 596.76 57.96 581.20 57.28 579.41 44.96
  Q 577.03 28.53 593.22 26.52
  Q 609.08 24.54 623.93 28.42
  Q 624.65 28.61 624.64 29.36
  Z"
/>
<path fill="#000000" d="
  M 720.70 35.50
  Q 723.46 27.83 731.26 26.30
  C 744.71 23.65 753.83 30.63 754.24 44.34
  Q 754.74 60.93 754.42 77.53
  Q 754.41 78.00 753.94 78.00
  L 738.26 78.00
  Q 737.65 78.00 737.63 77.39
  Q 737.11 61.48 737.24 52.26
  C 737.33 45.58 735.60 40.64 727.72 41.28
  C 721.80 41.76 720.17 45.82 720.11 51.21
  Q 719.96 64.32 720.00 77.48
  A 0.52 0.52 0.0 0 1 719.48 78.00
  L 704.00 78.00
  Q 703.25 78.00 703.25 77.25
  L 703.25 26.75
  A 0.50 0.50 0.0 0 1 703.75 26.25
  L 718.50 26.25
  Q 719.24 26.25 719.31 26.99
  L 720.08 35.42
  A 0.32 0.32 0.0 0 0 720.70 35.50
  Z"
/>
<path fill="#000000" d="
  M 138.99 58.97
  Q 139.06 57.77 138.93 56.58
  Q 138.88 56.12 138.96 55.66
  L 143.90 26.86
  Q 144.00 26.25 144.62 26.25
  L 161.19 26.25
  Q 161.90 26.25 161.73 26.94
  L 148.90 77.36
  A 0.86 0.86 0.0 0 1 148.07 78.00
  L 130.89 78.00
  Q 130.20 78.00 130.04 77.33
  L 123.66 50.73
  A 0.13 0.13 0.0 0 0 123.41 50.73
  L 117.27 77.50
  A 0.65 0.64 6.1 0 1 116.64 78.00
  L 99.05 78.00
  A 0.58 0.58 0.0 0 1 98.49 77.56
  L 85.56 26.77
  A 0.42 0.42 0.0 0 1 85.97 26.25
  L 102.38 26.25
  A 0.92 0.92 0.0 0 1 103.29 27.02
  L 108.66 58.95
  A 0.15 0.15 0.0 0 0 108.96 58.96
  L 115.89 26.85
  Q 116.02 26.25 116.63 26.25
  L 130.12 26.25
  A 1.14 1.14 0.0 0 1 131.24 27.16
  L 138.17 59.03
  A 0.42 0.42 0.0 0 0 138.99 58.97
  Z"
/>
<rect fill="#000000" x="674.25" y="26.25" width="17.00" height="51.76" rx="0.60"/>
<rect fill="#000000" x="414.27" y="44.75" width="43.48" height="13.24" rx="0.67"/>
<rect fill="#000000" x="821.01" y="79.75" width="49.74" height="13.76" rx="0.69"/>
</svg>
