<?xml version="1.0" encoding="UTF-8" standalone="no"?>
<!DOCTYPE svg PUBLIC "-//W3C//DTD SVG 1.1//EN" "http://www.w3.org/Graphics/SVG/1.1/DTD/svg11.dtd">
<svg xmlns="http://www.w3.org/2000/svg" version="1.1" viewBox="0 0 286 161">
<path fill="#000000" d="
  M 133.78 107.82
  C 140.40 108.39 148.09 108.30 153.10 103.29
  Q 153.45 102.94 153.91 103.12
  Q 155.63 103.82 155.96 105.42
  Q 156.06 105.93 155.65 106.26
  C 149.02 111.54 141.77 111.87 133.22 111.14
  Q 132.72 111.09 132.57 111.57
  Q 131.22 115.66 129.74 119.61
  C 124.24 134.23 111.23 146.31 95.69 149.68
  C 88.87 151.16 80.88 152.97 74.10 151.21
  Q 58.37 147.14 50.29 132.54
  Q 49.98 131.98 49.51 132.41
  C 47.07 134.65 44.88 137.16 42.38 139.07
  Q 36.17 143.80 30.36 149.17
  A 0.94 0.94 0.0 0 1 28.79 148.64
  C 28.39 146.34 32.85 142.66 34.88 141.17
  Q 41.92 136.01 48.09 129.83
  Q 48.47 129.44 48.34 128.91
  C 47.64 126.06 46.52 123.23 46.17 120.61
  C 44.01 104.75 50.87 91.18 65.21 84.05
  A 0.93 0.92 52.1 0 0 65.40 82.52
  C 58.99 77.04 52.64 69.28 52.09 60.68
  C 50.91 42.47 58.73 21.93 75.90 12.99
  C 89.44 5.95 98.27 15.63 99.22 28.50
  C 100.53 46.40 93.41 62.98 86.03 79.08
  Q 85.88 79.42 86.24 79.51
  Q 93.75 81.37 99.46 86.61
  Q 99.84 86.97 100.35 86.91
  Q 118.38 84.88 130.21 73.48
  C 131.81 71.94 131.54 69.27 131.47 67.03
  Q 131.12 54.82 130.97 42.61
  C 130.93 39.12 131.12 28.18 137.64 30.31
  C 142.28 31.82 144.45 40.93 144.50 45.00
  Q 144.66 59.14 135.71 70.48
  C 133.44 73.34 134.25 90.68 134.24 95.09
  C 134.22 98.95 133.53 103.10 133.23 107.17
  Q 133.19 107.77 133.78 107.82
  Z
  M 66.59 80.06
  C 67.19 80.57 68.45 82.11 69.50 81.76
  C 75.35 79.84 78.79 79.61 82.94 79.10
  Q 83.50 79.03 83.74 78.52
  C 88.68 67.70 94.83 54.38 96.22 42.54
  C 97.43 32.31 98.10 9.72 80.43 14.44
  Q 74.28 16.08 70.02 20.27
  Q 52.66 37.32 54.78 61.56
  C 55.39 68.59 61.43 75.66 66.59 80.06
  Z
  M 136.34 34.84
  C 134.37 45.13 134.71 56.31 134.57 66.67
  A 0.39 0.39 0.0 0 0 135.28 66.89
  C 141.06 58.30 144.98 42.73 137.27 34.57
  Q 136.54 33.80 136.34 34.84
  Z
  M 103.55 89.91
  Q 111.86 96.66 119.41 102.61
  Q 123.60 105.90 130.01 106.67
  Q 130.47 106.72 130.55 106.26
  C 132.27 95.45 131.59 86.55 131.56 76.44
  Q 131.56 75.80 131.04 76.17
  C 129.27 77.42 127.52 79.21 126.03 80.20
  Q 115.78 86.97 103.77 89.04
  A 0.49 0.49 0.0 0 0 103.55 89.91
  Z
  M 73.74 84.34
  L 79.66 86.07
  Q 80.30 86.26 80.57 85.64
  L 81.82 82.77
  A 0.57 0.57 0.0 0 0 81.20 81.98
  L 73.80 83.32
  A 0.53 0.52 -41.7 0 0 73.74 84.34
  Z
  M 94.31 86.69
  Q 90.23 83.46 85.17 82.24
  Q 84.65 82.11 84.43 82.61
  L 82.79 86.34
  Q 82.46 87.08 83.28 87.13
  L 94.39 87.70
  A 0.43 0.42 -7.9 0 0 94.82 87.14
  Q 94.68 86.69 94.31 86.69
  Z
  M 77.80 88.41
  L 69.44 85.13
  Q 69.02 84.96 68.61 85.15
  C 51.88 92.70 44.54 108.52 50.30 126.36
  A 0.58 0.58 0.0 0 0 51.28 126.58
  C 61.96 115.06 69.62 102.35 78.09 89.31
  A 0.62 0.61 27.4 0 0 77.80 88.41
  Z
  M 129.42 110.33
  C 117.25 107.89 108.23 98.32 98.81 90.21
  Q 98.43 89.88 97.92 89.91
  Q 89.65 90.41 81.46 89.31
  Q 80.94 89.24 80.65 89.69
  C 71.86 103.57 63.62 117.13 52.43 129.35
  A 1.21 1.20 52.2 0 0 52.26 130.74
  Q 59.91 144.84 74.93 148.67
  C 80.37 150.06 87.42 148.97 92.50 147.79
  Q 122.63 140.81 129.90 111.08
  Q 130.05 110.45 129.42 110.33
  Z"
/>
<ellipse fill="#000000" cx="0.00" cy="0.00" transform="translate(200.64,108.98) rotate(-2.0)" rx="1.70" ry="1.42"/>
<path fill="#000000" d="
  M 210.37 129.01
  A 0.54 0.53 32.9 0 0 211.36 128.80
  C 211.83 124.70 213.79 117.45 219.80 120.81
  Q 220.23 121.05 220.36 121.52
  C 221.35 125.03 222.01 128.50 225.51 130.26
  A 0.50 0.50 0.0 0 0 226.24 129.78
  C 225.84 123.53 231.78 116.70 236.89 124.59
  C 239.31 128.32 241.34 133.43 246.02 134.36
  A 2.24 2.23 18.3 0 1 247.61 137.50
  Q 246.88 139.05 245.44 139.86
  Q 244.99 140.12 244.56 139.83
  C 241.98 138.08 239.07 136.86 237.22 134.36
  Q 234.49 130.67 232.66 126.59
  A 0.53 0.53 0.0 0 0 231.67 126.63
  C 230.55 129.84 229.07 136.66 224.03 134.98
  Q 218.83 133.23 217.25 127.97
  A 0.33 0.32 -48.4 0 0 216.62 128.01
  C 215.29 135.82 208.76 136.63 204.88 129.98
  Q 204.40 129.15 203.74 129.84
  Q 201.20 132.48 197.80 130.82
  Q 197.25 130.55 196.98 131.10
  C 193.86 137.33 190.49 137.23 184.23 133.89
  Q 183.76 133.64 183.51 134.12
  C 180.29 140.36 176.09 138.49 170.76 136.38
  Q 170.28 136.19 170.03 136.64
  C 166.03 143.86 158.34 140.73 155.91 134.57
  A 0.59 0.59 0.0 0 0 154.86 134.47
  C 152.84 137.66 147.55 144.90 143.51 144.94
  C 131.94 145.04 142.66 111.55 149.41 118.29
  C 150.11 118.99 151.21 124.56 148.36 123.10
  Q 147.86 122.84 147.78 122.28
  L 147.73 121.94
  Q 147.64 121.31 147.06 121.58
  C 144.50 122.73 141.51 137.05 142.59 139.67
  A 1.48 1.47 53.8 0 0 145.08 140.06
  C 150.70 133.36 155.64 128.75 154.62 119.23
  Q 154.48 117.92 155.72 116.89
  A 1.65 1.65 0.0 0 1 158.06 117.12
  C 162.39 122.49 157.69 128.06 160.90 134.40
  A 2.18 2.17 73.5 0 0 163.07 135.58
  C 167.21 135.13 167.43 132.25 166.22 128.84
  Q 164.74 124.63 165.80 120.81
  C 166.77 117.27 170.64 116.70 172.80 119.49
  C 175.08 122.42 174.47 127.30 173.28 130.79
  Q 173.11 131.27 173.41 131.69
  Q 174.84 133.69 176.87 133.31
  C 180.31 132.65 180.81 126.85 180.42 124.22
  Q 180.35 123.73 180.58 123.28
  Q 181.30 121.89 180.20 120.71
  Q 179.78 120.27 180.03 119.72
  Q 180.99 117.63 183.12 117.01
  Q 183.75 116.83 184.19 117.33
  Q 187.18 120.71 186.50 124.98
  C 186.02 128.04 187.04 130.60 190.14 131.13
  A 1.97 1.97 0.0 0 0 192.44 129.39
  Q 192.90 125.05 191.55 121.36
  C 189.40 115.50 196.80 114.68 197.01 119.33
  C 197.10 121.33 197.79 122.97 198.19 124.88
  A 1.29 1.29 0.0 0 0 199.01 125.84
  Q 200.80 126.49 201.23 124.69
  Q 201.34 124.22 201.19 123.75
  Q 199.96 119.97 203.35 118.15
  Q 203.85 117.88 204.39 118.06
  C 207.46 119.12 206.75 121.78 207.60 123.70
  Q 208.80 126.41 210.37 129.01
  Z"
/>
</svg>
