<?xml version="1.0" encoding="UTF-8" standalone="no"?>
<!DOCTYPE svg PUBLIC "-//W3C//DTD SVG 1.1//EN" "http://www.w3.org/Graphics/SVG/1.1/DTD/svg11.dtd">
<svg xmlns="http://www.w3.org/2000/svg" version="1.1" viewBox="0 0 165 165">
<g stroke-width="2.00" fill="none" stroke-linecap="butt">
<path stroke="#000503" vector-effect="non-scaling-stroke" d="
  M 164.75 121.29
  Q 163.33 120.56 162.31 122.13
  A 0.36 0.33 -48.3 0 1 161.75 122.18
  Q 159.49 119.27 160.50 116.25
  Q 161.53 113.16 160.70 110.96
  A 1.29 0.93 6.7 0 0 160.02 110.34
  Q 157.93 109.53 158.34 107.04
  Q 158.40 106.68 158.22 107.02
  Q 157.43 108.49 157.27 106.24
  A 0.55 0.55 -0.4 0 0 156.75 105.72
  Q 143.85 104.95 129.47 105.56
  A 0.65 0.64 -7.6 0 0 128.87 106.34
  Q 129.13 107.58 128.42 106.52
  Q 128.26 106.27 128.22 106.55
  Q 128.07 107.49 127.45 108.12
  A 0.53 0.49 46.6 0 1 126.72 108.07
  L 119.73 100.58
  A 0.58 0.58 -46.6 0 1 119.71 99.80
  Q 120.20 99.21 119.50 99.00
  Q 118.44 98.69 116.25 97.75
  L 113.87 96.73"
/>
<path stroke="#227e3b" vector-effect="non-scaling-stroke" d="
  M 113.87 96.73
  Q 103.37 115.18 82.06 112.54
  Q 81.12 112.42 81.73 111.69
  L 134.74 47.71
  A 0.66 0.65 -43.8 0 0 134.76 46.90
  Q 116.14 22.61 86.96 22.77
  Q 76.43 22.83 67.37 26.12
  Q 57.61 29.66 49.79 36.42
  Q 42.15 43.03 37.34 51.92
  Q 31.42 62.84 30.25 76.00
  Q 28.77 92.72 34.79 107.50"
/>
<path stroke="#000503" vector-effect="non-scaling-stroke" d="
  M 34.79 107.50
  Q 34.45 110.40 33.69 107.81
  A 3.45 1.52 81.7 0 0 32.44 105.81
  Q 31.36 105.21 31.28 106.16
  A 0.91 0.91 -14.2 0 1 30.88 106.83
  Q 29.22 107.93 29.54 106.30
  A 0.46 0.45 -84.2 0 0 29.10 105.75
  L 4.75 105.50
  A 0.64 0.64 -83.1 0 0 4.13 105.99
  Q 3.80 107.33 3.37 108.65
  Q 3.25 109.00 3.28 109.37
  Q 3.55 113.15 2.25 109.50
  Q 1.66 107.84 1.69 106.06
  Q 1.77 100.33 1.50 94.60
  Q 1.50 94.49 1.50 85.91
  Q 1.51 80.72 0.06 75.67"
/>
<path stroke="#22833d" vector-effect="non-scaling-stroke" d="
  M 113.87 96.73
  L 134.27 117.15
  A 0.90 0.90 41.7 0 1 134.34 118.35
  Q 117.69 139.62 92.75 141.85
  Q 82.78 142.74 72.93 140.21
  Q 46.77 133.48 34.79 107.50"
/>
<path stroke="#227e3b" vector-effect="non-scaling-stroke" d="
  M 94.61 52.88
  Q 91.36 52.10 88.39 51.96
  Q 85.49 51.83 82.17 52.57
  Q 66.39 56.11 61.36 70.60
  Q 59.23 76.75 59.43 83.60
  Q 59.63 90.22 61.91 96.71
  Q 62.08 97.20 62.39 96.79
  L 94.93 53.78
  A 0.57 0.57 -64.7 0 0 94.61 52.88"
/>
<path stroke="#010f08" vector-effect="non-scaling-stroke" d="
  M 164.29 124.50
  Q 164.11 122.06 163.30 123.05
  Q 163.02 123.40 162.94 124.04
  Q 161.89 132.78 157.13 140.03
  Q 156.97 140.27 154.70 144.16
  Q 153.46 146.28 151.60 147.88
  Q 148.22 150.80 148.12 150.89
  Q 141.29 157.41 132.29 160.49
  Q 131.98 160.59 130.67 160.74
  Q 129.80 160.84 129.11 161.41
  A 2.03 1.21 -57.1 0 1 128.26 161.83
  Q 123.64 162.51 119.00 162.00
  Q 118.40 161.93 117.15 162.25
  Q 116.15 162.50 115.33 162.51
  Q 80.15 162.70 44.97 162.27
  Q 43.84 162.25 42.10 161.79
  Q 40.67 161.41 39.18 161.37
  Q 36.19 161.30 34.90 160.89
  Q 32.32 160.07 29.86 158.97
  Q 25.46 157.01 24.96 156.75
  Q 22.53 155.46 19.69 153.06
  Q 4.65 140.39 1.82 121.99
  A 1.20 0.73 -87.8 0 0 1.37 121.18
  Q 0.83 120.87 0.29 121.50"
/>
</g>
<path fill="#000000" d="
  M 43.31 0.00
  L 120.06 0.00
  Q 141.03 1.92 153.94 17.31
  Q 163.75 29.02 165.00 45.31
  L 165.00 119.56
  Q 164.55 120.60 164.75 121.29
  Q 163.33 120.56 162.31 122.13
  A 0.36 0.33 -48.3 0 1 161.75 122.18
  Q 159.49 119.27 160.50 116.25
  Q 161.53 113.16 160.70 110.96
  A 1.29 0.93 6.7 0 0 160.02 110.34
  Q 157.93 109.53 158.34 107.04
  Q 158.40 106.68 158.22 107.02
  Q 157.43 108.49 157.27 106.24
  A 0.55 0.55 -0.4 0 0 156.75 105.72
  Q 143.85 104.95 129.47 105.56
  A 0.65 0.64 -7.6 0 0 128.87 106.34
  Q 129.13 107.58 128.42 106.52
  Q 128.26 106.27 128.22 106.55
  Q 128.07 107.49 127.45 108.12
  A 0.53 0.49 46.6 0 1 126.72 108.07
  L 119.73 100.58
  A 0.58 0.58 -46.6 0 1 119.71 99.80
  Q 120.20 99.21 119.50 99.00
  Q 118.44 98.69 116.25 97.75
  L 113.87 96.73
  Q 103.37 115.18 82.06 112.54
  Q 81.12 112.42 81.73 111.69
  L 134.74 47.71
  A 0.66 0.65 -43.8 0 0 134.76 46.90
  Q 116.14 22.61 86.96 22.77
  Q 76.43 22.83 67.37 26.12
  Q 57.61 29.66 49.79 36.42
  Q 42.15 43.03 37.34 51.92
  Q 31.42 62.84 30.25 76.00
  Q 28.77 92.72 34.79 107.50
  Q 34.45 110.40 33.69 107.81
  A 3.45 1.52 81.7 0 0 32.44 105.81
  Q 31.36 105.21 31.28 106.16
  A 0.91 0.91 -14.2 0 1 30.88 106.83
  Q 29.22 107.93 29.54 106.30
  A 0.46 0.45 -84.2 0 0 29.10 105.75
  L 4.75 105.50
  A 0.64 0.64 -83.1 0 0 4.13 105.99
  Q 3.80 107.33 3.37 108.65
  Q 3.25 109.00 3.28 109.37
  Q 3.55 113.15 2.25 109.50
  Q 1.66 107.84 1.69 106.06
  Q 1.77 100.33 1.50 94.60
  Q 1.50 94.49 1.50 85.91
  Q 1.51 80.72 0.06 75.67
  L 0.00 43.19
  Q 1.67 23.81 15.69 11.44
  Q 27.19 1.28 43.31 0.00
  Z"
/>
<path fill="#43fb75" d="
  M 113.87 96.73
  L 134.27 117.15
  A 0.90 0.90 41.7 0 1 134.34 118.35
  Q 117.69 139.62 92.75 141.85
  Q 82.78 142.74 72.93 140.21
  Q 46.77 133.48 34.79 107.50
  Q 28.77 92.72 30.25 76.00
  Q 31.42 62.84 37.34 51.92
  Q 42.15 43.03 49.79 36.42
  Q 57.61 29.66 67.37 26.12
  Q 76.43 22.83 86.96 22.77
  Q 116.14 22.61 134.76 46.90
  A 0.66 0.65 -43.8 0 1 134.74 47.71
  L 81.73 111.69
  Q 81.12 112.42 82.06 112.54
  Q 103.37 115.18 113.87 96.73
  Z
  M 94.61 52.88
  Q 91.36 52.10 88.39 51.96
  Q 85.49 51.83 82.17 52.57
  Q 66.39 56.11 61.36 70.60
  Q 59.23 76.75 59.43 83.60
  Q 59.63 90.22 61.91 96.71
  Q 62.08 97.20 62.39 96.79
  L 94.93 53.78
  A 0.57 0.57 -64.7 0 0 94.61 52.88
  Z"
/>
<path fill="#000000" d="
  M 94.61 52.88
  A 0.57 0.57 -64.7 0 1 94.93 53.78
  L 62.39 96.79
  Q 62.08 97.20 61.91 96.71
  Q 59.63 90.22 59.43 83.60
  Q 59.23 76.75 61.36 70.60
  Q 66.39 56.11 82.17 52.57
  Q 85.49 51.83 88.39 51.96
  Q 91.36 52.10 94.61 52.88
  Z"
/>
<path fill="#000a05" d="
  M 0.06 75.67
  Q 1.51 80.72 1.50 85.91
  Q 1.50 94.49 1.50 94.60
  Q 1.77 100.33 1.69 106.06
  Q 1.66 107.84 2.25 109.50
  Q 3.55 113.15 3.28 109.37
  Q 3.25 109.00 3.37 108.65
  Q 3.80 107.33 4.13 105.99
  A 0.64 0.64 -83.1 0 1 4.75 105.50
  L 29.10 105.75
  A 0.46 0.45 -84.2 0 1 29.54 106.30
  Q 29.22 107.93 30.88 106.83
  A 0.91 0.91 -14.2 0 0 31.28 106.16
  Q 31.36 105.21 32.44 105.81
  A 3.45 1.52 81.7 0 1 33.69 107.81
  Q 34.45 110.40 34.79 107.50
  Q 46.77 133.48 72.93 140.21
  Q 82.78 142.74 92.75 141.85
  Q 117.69 139.62 134.34 118.35
  A 0.90 0.90 41.7 0 0 134.27 117.15
  L 113.87 96.73
  L 116.25 97.75
  Q 118.44 98.69 119.50 99.00
  Q 120.20 99.21 119.71 99.80
  A 0.58 0.58 -46.6 0 0 119.73 100.58
  L 126.72 108.07
  A 0.53 0.49 46.6 0 0 127.45 108.12
  Q 128.07 107.49 128.22 106.55
  Q 128.26 106.27 128.42 106.52
  Q 129.13 107.58 128.87 106.34
  A 0.65 0.64 -7.6 0 1 129.47 105.56
  Q 143.85 104.95 156.75 105.72
  A 0.55 0.55 -0.8 0 1 157.27 106.24
  Q 157.43 108.49 158.22 107.02
  Q 158.40 106.68 158.34 107.04
  Q 157.93 109.53 160.02 110.34
  A 1.29 0.93 6.7 0 1 160.70 110.96
  Q 161.53 113.16 160.50 116.25
  Q 159.49 119.27 161.75 122.18
  A 0.36 0.33 -48.3 0 0 162.31 122.13
  Q 163.33 120.56 164.75 121.29
  L 164.29 124.50
  Q 164.11 122.06 163.30 123.05
  Q 163.02 123.40 162.94 124.04
  Q 161.89 132.78 157.13 140.03
  Q 156.97 140.27 154.70 144.16
  Q 153.46 146.28 151.60 147.88
  Q 148.22 150.80 148.12 150.89
  Q 141.29 157.41 132.29 160.49
  Q 131.98 160.59 130.67 160.74
  Q 129.80 160.84 129.11 161.41
  A 2.03 1.21 -57.1 0 1 128.26 161.83
  Q 123.64 162.51 119.00 162.00
  Q 118.40 161.93 117.15 162.25
  Q 116.15 162.50 115.33 162.51
  Q 80.15 162.70 44.97 162.27
  Q 43.84 162.25 42.10 161.79
  Q 40.67 161.41 39.18 161.37
  Q 36.19 161.30 34.90 160.89
  Q 32.32 160.07 29.86 158.97
  Q 25.46 157.01 24.96 156.75
  Q 22.53 155.46 19.69 153.06
  Q 4.65 140.39 1.82 121.99
  A 1.20 0.73 -87.8 0 0 1.37 121.18
  Q 0.83 120.87 0.29 121.50
  Q 0.41 120.63 0.00 119.94
  L 0.06 75.67
  Z"
/>
<path fill="#02140b" d="
  M 164.29 124.50
  Q 160.98 144.70 144.50 156.25
  Q 133.28 164.12 119.19 165.00
  L 45.44 165.00
  Q 24.51 163.34 11.31 147.94
  Q 1.78 136.81 0.29 121.50
  Q 0.83 120.87 1.37 121.18
  A 1.20 0.73 -87.8 0 1 1.82 121.99
  Q 4.65 140.39 19.69 153.06
  Q 22.53 155.46 24.96 156.75
  Q 25.46 157.01 29.86 158.97
  Q 32.32 160.07 34.90 160.89
  Q 36.19 161.30 39.18 161.37
  Q 40.67 161.41 42.10 161.79
  Q 43.84 162.25 44.97 162.27
  Q 80.15 162.70 115.33 162.51
  Q 116.15 162.50 117.15 162.25
  Q 118.40 161.93 119.00 162.00
  Q 123.64 162.51 128.26 161.83
  A 2.03 1.21 -57.1 0 0 129.11 161.41
  Q 129.80 160.84 130.67 160.74
  Q 131.98 160.59 132.29 160.49
  Q 141.29 157.41 148.12 150.89
  Q 148.22 150.80 151.60 147.88
  Q 153.46 146.28 154.70 144.16
  Q 156.97 140.27 157.13 140.03
  Q 161.89 132.78 162.94 124.04
  Q 163.02 123.40 163.30 123.05
  Q 164.11 122.06 164.29 124.50
  Z"
/>
</svg>
