<?xml version="1.0" encoding="UTF-8" standalone="no"?>
<!DOCTYPE svg PUBLIC "-//W3C//DTD SVG 1.1//EN" "http://www.w3.org/Graphics/SVG/1.1/DTD/svg11.dtd">
<svg xmlns="http://www.w3.org/2000/svg" version="1.1" viewBox="0.00 0.00 1448.00 1448.00">
<g stroke-width="2.00" fill="none" stroke-linecap="butt">
<path stroke="#808080" d="
  M 1082.61 607.43
  C 1028.27 447.38 877.49 345.48 709.24 351.07
  C 576.87 355.46 453.07 432.21 390.74 549.06
  C 313.88 693.14 339.59 867.88 453.12 984.33
  Q 453.52 984.73 454.02 984.49
  Q 455.57 983.74 457.13 983.06
  Q 589.56 925.62 716.04 856.13
  C 845.05 785.25 969.32 709.12 1086.85 622.98
  Q 1087.26 622.69 1087.13 622.20
  Q 1085.06 614.67 1082.61 607.43"
/>
<path stroke="#808080" d="
  M 1305.88 397.76
  C 1305.08 374.17 1238.36 384.85 1225.07 387.35
  Q 1195.73 392.87 1167.05 401.12
  C 1160.75 402.93 1153.23 404.79 1147.22 407.63
  C 1142.85 409.70 1138.42 409.88 1134.07 411.69
  C 1129.78 413.47 1124.00 414.40 1120.82 415.48
  Q 1070.63 432.58 1021.74 452.76
  A 0.35 0.35 0.0 0 0 1021.62 453.32
  Q 1082.32 519.34 1109.97 604.77
  Q 1110.19 605.45 1110.76 605.02
  Q 1166.48 563.29 1218.14 516.13
  Q 1244.09 492.44 1267.38 466.14
  C 1279.79 452.13 1291.51 436.97 1299.96 420.20
  C 1303.57 413.04 1306.16 405.88 1305.88 397.76"
/>
<path stroke="#808080" d="
  M 475.71 1005.68
  Q 557.65 1075.13 662.62 1092.51
  C 795.36 1114.49 933.43 1062.99 1018.19 958.36
  C 1087.96 872.24 1115.76 760.30 1094.38 651.67
  A 0.52 0.51 66.3 0 0 1093.57 651.35
  C 951.42 754.26 799.55 844.95 643.42 924.90
  Q 560.67 967.26 475.91 1004.29
  A 0.83 0.83 0.0 0 0 475.71 1005.68"
/>
<path stroke="#808080" d="
  M 146.19 1058.81
  C 152.72 1063.93 162.72 1065.35 170.77 1065.60
  Q 194.43 1066.32 217.67 1062.38
  C 257.03 1055.71 296.09 1043.98 333.79 1030.99
  Q 380.65 1014.83 426.14 996.07
  A 0.61 0.61 0.0 0 0 426.36 995.09
  Q 365.76 929.12 338.18 843.76
  A 0.44 0.44 0.0 0 0 337.50 843.54
  Q 279.28 886.71 225.90 935.66
  C 197.31 961.88 168.47 990.99 149.42 1025.08
  C 144.84 1033.28 136.94 1051.56 146.19 1058.81"
/>
<path stroke="#808080" d="
  M 598.02 474.30
  C 597.56 505.21 622.71 530.44 653.30 530.33
  C 678.37 530.23 699.96 513.78 706.87 489.74
  C 715.41 459.99 695.96 429.83 666.82 422.19
  C 633.17 413.36 598.54 439.35 598.02 474.30"
/>
<path stroke="#808080" d="
  M 907.1275 655.7554
  A 46.35 46.26 0.6 0 0 861.2644 609.0125
  A 46.35 46.26 0.6 0 0 814.4325 654.7846
  A 46.35 46.26 0.6 0 0 860.2956 701.5275
  A 46.35 46.26 0.6 0 0 907.1275 655.7554"
/>
<path stroke="#808080" d="
  M 513.69 787.31
  C 547.35 820.24 603.14 812.40 626.94 771.94
  C 642.52 745.48 638.79 711.30 618.16 688.57
  C 596.71 664.93 561.72 657.48 532.90 671.64
  C 488.00 693.70 477.79 752.21 513.69 787.31"
/>
<path stroke="#808080" d="
  M 681.8496 475.5993
  A 28.51 28.05 0.3 0 0 653.4869 447.4004
  A 28.51 28.05 0.3 0 0 624.8304 475.3007
  A 28.51 28.05 0.3 0 0 653.1931 503.4996
  A 28.51 28.05 0.3 0 0 681.8496 475.5993"
/>
<path stroke="#808080" d="
  M 880.28 655.27
  A 19.49 19.49 0.0 0 0 860.79 635.78
  A 19.49 19.49 0.0 0 0 841.30 655.27
  A 19.49 19.49 0.0 0 0 860.79 674.76
  A 19.49 19.49 0.0 0 0 880.28 655.27"
/>
<path stroke="#808080" d="
  M 609.7299 736.2894
  A 45.47 44.87 0.1 0 0 564.3383 691.3401
  A 45.47 44.87 0.1 0 0 518.7901 736.1306
  A 45.47 44.87 0.1 0 0 564.1817 781.0799
  A 45.47 44.87 0.1 0 0 609.7299 736.2894"
/>
</g>
<path fill="#000000" d="
  M 715.58 0.00
  L 731.79 0.00
  C 1126.49 5.60 1442.00 320.38 1448.00 715.07
  L 1448.00 732.55
  Q 1446.16 867.19 1397.73 989.94
  C 1337.98 1141.41 1226.34 1271.03 1084.96 1351.98
  Q 922.16 1445.21 731.92 1448.00
  L 714.71 1448.00
  Q 539.27 1445.13 385.15 1364.15
  C 258.03 1297.36 150.92 1190.21 84.02 1063.15
  Q 2.60 908.51 0.00 732.42
  L 0.00 714.95
  C 5.64 321.41 321.00 5.76 715.58 0.00
  Z
  M 1082.61 607.43
  C 1028.27 447.38 877.49 345.48 709.24 351.07
  C 576.87 355.46 453.07 432.21 390.74 549.06
  C 313.88 693.14 339.59 867.88 453.12 984.33
  Q 453.52 984.73 454.02 984.49
  Q 455.57 983.74 457.13 983.06
  Q 589.56 925.62 716.04 856.13
  C 845.05 785.25 969.32 709.12 1086.85 622.98
  Q 1087.26 622.69 1087.13 622.20
  Q 1085.06 614.67 1082.61 607.43
  Z
  M 1305.88 397.76
  C 1305.08 374.17 1238.36 384.85 1225.07 387.35
  Q 1195.73 392.87 1167.05 401.12
  C 1160.75 402.93 1153.23 404.79 1147.22 407.63
  C 1142.85 409.70 1138.42 409.88 1134.07 411.69
  C 1129.78 413.47 1124.00 414.40 1120.82 415.48
  Q 1070.63 432.58 1021.74 452.76
  A 0.35 0.35 0.0 0 0 1021.62 453.32
  Q 1082.32 519.34 1109.97 604.77
  Q 1110.19 605.45 1110.76 605.02
  Q 1166.48 563.29 1218.14 516.13
  Q 1244.09 492.44 1267.38 466.14
  C 1279.79 452.13 1291.51 436.97 1299.96 420.20
  C 1303.57 413.04 1306.16 405.88 1305.88 397.76
  Z
  M 475.71 1005.68
  Q 557.65 1075.13 662.62 1092.51
  C 795.36 1114.49 933.43 1062.99 1018.19 958.36
  C 1087.96 872.24 1115.76 760.30 1094.38 651.67
  A 0.52 0.51 66.3 0 0 1093.57 651.35
  C 951.42 754.26 799.55 844.95 643.42 924.90
  Q 560.67 967.26 475.91 1004.29
  A 0.83 0.83 0.0 0 0 475.71 1005.68
  Z
  M 146.19 1058.81
  C 152.72 1063.93 162.72 1065.35 170.77 1065.60
  Q 194.43 1066.32 217.67 1062.38
  C 257.03 1055.71 296.09 1043.98 333.79 1030.99
  Q 380.65 1014.83 426.14 996.07
  A 0.61 0.61 0.0 0 0 426.36 995.09
  Q 365.76 929.12 338.18 843.76
  A 0.44 0.44 0.0 0 0 337.50 843.54
  Q 279.28 886.71 225.90 935.66
  C 197.31 961.88 168.47 990.99 149.42 1025.08
  C 144.84 1033.28 136.94 1051.56 146.19 1058.81
  Z"
/>
<path fill="#ffffff" d="
  M 709.24 351.07
  C 877.49 345.48 1028.27 447.38 1082.61 607.43
  Q 1085.06 614.67 1087.13 622.20
  Q 1087.26 622.69 1086.85 622.98
  C 969.32 709.12 845.05 785.25 716.04 856.13
  Q 589.56 925.62 457.13 983.06
  Q 455.57 983.74 454.02 984.49
  Q 453.52 984.73 453.12 984.33
  C 339.59 867.88 313.88 693.14 390.74 549.06
  C 453.07 432.21 576.87 355.46 709.24 351.07
  Z
  M 598.02 474.30
  C 597.56 505.21 622.71 530.44 653.30 530.33
  C 678.37 530.23 699.96 513.78 706.87 489.74
  C 715.41 459.99 695.96 429.83 666.82 422.19
  C 633.17 413.36 598.54 439.35 598.02 474.30
  Z
  M 907.1275 655.7554
  A 46.35 46.26 0.6 0 0 861.2644 609.0125
  A 46.35 46.26 0.6 0 0 814.4325 654.7846
  A 46.35 46.26 0.6 0 0 860.2956 701.5275
  A 46.35 46.26 0.6 0 0 907.1275 655.7554
  Z
  M 513.69 787.31
  C 547.35 820.24 603.14 812.40 626.94 771.94
  C 642.52 745.48 638.79 711.30 618.16 688.57
  C 596.71 664.93 561.72 657.48 532.90 671.64
  C 488.00 693.70 477.79 752.21 513.69 787.31
  Z"
/>
<path fill="#ffffff" d="
  M 1225.07 387.35
  C 1238.36 384.85 1305.08 374.17 1305.88 397.76
  C 1306.16 405.88 1303.57 413.04 1299.96 420.20
  C 1291.51 436.97 1279.79 452.13 1267.38 466.14
  Q 1244.09 492.44 1218.14 516.13
  Q 1166.48 563.29 1110.76 605.02
  Q 1110.19 605.45 1109.97 604.77
  Q 1082.32 519.34 1021.62 453.32
  A 0.35 0.35 0.0 0 1 1021.74 452.76
  Q 1070.63 432.58 1120.82 415.48
  C 1124.00 414.40 1129.78 413.47 1134.07 411.69
  C 1138.42 409.88 1142.85 409.70 1147.22 407.63
  C 1153.23 404.79 1160.75 402.93 1167.05 401.12
  Q 1195.73 392.87 1225.07 387.35
  Z"
/>
<path fill="#000000" d="
  M 653.30 530.33
  C 622.71 530.44 597.56 505.21 598.02 474.30
  C 598.54 439.35 633.17 413.36 666.82 422.19
  C 695.96 429.83 715.41 459.99 706.87 489.74
  C 699.96 513.78 678.37 530.23 653.30 530.33
  Z
  M 681.8496 475.5993
  A 28.51 28.05 0.3 0 0 653.4869 447.4004
  A 28.51 28.05 0.3 0 0 624.8304 475.3007
  A 28.51 28.05 0.3 0 0 653.1931 503.4996
  A 28.51 28.05 0.3 0 0 681.8496 475.5993
  Z"
/>
<ellipse fill="#ffffff" cx="0.00" cy="0.00" transform="translate(653.34,475.45) rotate(0.3)" rx="28.51" ry="28.05"/>
<path fill="#000000" d="
  M 907.1275 655.7554
  A 46.35 46.26 0.6 0 1 860.2956 701.5275
  A 46.35 46.26 0.6 0 1 814.4325 654.7846
  A 46.35 46.26 0.6 0 1 861.2644 609.0125
  A 46.35 46.26 0.6 0 1 907.1275 655.7554
  Z
  M 880.28 655.27
  A 19.49 19.49 0.0 0 0 860.79 635.78
  A 19.49 19.49 0.0 0 0 841.30 655.27
  A 19.49 19.49 0.0 0 0 860.79 674.76
  A 19.49 19.49 0.0 0 0 880.28 655.27
  Z"
/>
<circle fill="#ffffff" cx="860.79" cy="655.27" r="19.49"/>
<path fill="#ffffff" d="
  M 475.71 1005.68
  A 0.83 0.83 0.0 0 1 475.91 1004.29
  Q 560.67 967.26 643.42 924.90
  C 799.55 844.95 951.42 754.26 1093.57 651.35
  A 0.52 0.51 66.3 0 1 1094.38 651.67
  C 1115.76 760.30 1087.96 872.24 1018.19 958.36
  C 933.43 1062.99 795.36 1114.49 662.62 1092.51
  Q 557.65 1075.13 475.71 1005.68
  Z"
/>
<path fill="#000000" d="
  M 513.69 787.31
  C 477.79 752.21 488.00 693.70 532.90 671.64
  C 561.72 657.48 596.71 664.93 618.16 688.57
  C 638.79 711.30 642.52 745.48 626.94 771.94
  C 603.14 812.40 547.35 820.24 513.69 787.31
  Z
  M 609.7299 736.2894
  A 45.47 44.87 0.1 0 0 564.3383 691.3401
  A 45.47 44.87 0.1 0 0 518.7901 736.1306
  A 45.47 44.87 0.1 0 0 564.1817 781.0799
  A 45.47 44.87 0.1 0 0 609.7299 736.2894
  Z"
/>
<ellipse fill="#ffffff" cx="0.00" cy="0.00" transform="translate(564.26,736.21) rotate(0.1)" rx="45.47" ry="44.87"/>
<path fill="#ffffff" d="
  M 146.19 1058.81
  C 136.94 1051.56 144.84 1033.28 149.42 1025.08
  C 168.47 990.99 197.31 961.88 225.90 935.66
  Q 279.28 886.71 337.50 843.54
  A 0.44 0.44 0.0 0 1 338.18 843.76
  Q 365.76 929.12 426.36 995.09
  A 0.61 0.61 0.0 0 1 426.14 996.07
  Q 380.65 1014.83 333.79 1030.99
  C 296.09 1043.98 257.03 1055.71 217.67 1062.38
  Q 194.43 1066.32 170.77 1065.60
  C 162.72 1065.35 152.72 1063.93 146.19 1058.81
  Z"
/>
</svg>
